<svg xmlns="http://www.w3.org/2000/svg" viewBox="0 0 32 32">
  <!-- Background -->
  <rect width="32" height="32" rx="6" fill="#414141"/>
  
  <!-- Grid pattern icon -->
  <g transform="scale(0.05) translate(44, 114)">
    <path d="M85.6 197.2C62.1333 197.2 44 179.067 44 155.6C44 132.133 62.1333 114 85.6 114C109.067 114 127.2 132.133 127.2 155.6C127.2 179.067 109.067 197.2 85.6 197.2ZM186.933 114H270.133V197.2H186.933V114ZM371.467 197.2C348 197.2 329.867 179.067 329.867 155.6C329.867 132.133 348 114 371.467 114C394.933 114 413.067 132.133 413.067 155.6C413.067 179.067 394.933 197.2 371.467 197.2ZM472.8 114H556V197.2H472.8V114ZM44 256.933H127.2V340.133H44V256.933ZM228.533 340.133C205.067 340.133 186.933 322 186.933 298.533C186.933 275.067 205.067 256.933 228.533 256.933C252 256.933 270.133 275.067 270.133 298.533C270.133 322 252 340.133 228.533 340.133ZM329.867 256.933H413.067V340.133H329.867V256.933ZM514.4 340.133C490.933 340.133 472.8 322 472.8 298.533C472.8 275.067 490.933 256.933 514.4 256.933C537.867 256.933 556 275.067 556 298.533C556 322 537.867 340.133 514.4 340.133ZM85.6 483.067C62.1333 483.067 44 464.933 44 441.467C44 418 62.1333 399.867 85.6 399.867C109.067 399.867 127.2 418 127.2 441.467C127.2 464.933 109.067 483.067 85.6 483.067ZM186.933 399.867H270.133V483.067H186.933V399.867ZM371.467 483.067C348 483.067 329.867 464.933 329.867 441.467C329.867 418 348 399.867 371.467 399.867C394.933 399.867 413.067 418 413.067 441.467C413.067 464.933 394.933 483.067 371.467 483.067ZM472.8 399.867H556V483.067H472.8V399.867ZM44 542.8H127.2V626H44V542.8ZM228.533 626C205.067 626 186.933 607.867 186.933 584.4C186.933 560.933 205.067 542.8 228.533 542.8C252 542.8 270.133 560.933 270.133 584.4C270.133 607.867 252 626 228.533 626ZM329.867 542.8H413.067V626H329.867V542.8ZM514.4 626C490.933 626 472.8 607.867 472.8 584.4C472.8 560.933 490.933 542.8 514.4 542.8C537.867 542.8 556 560.933 556 584.4C556 607.867 537.867 626 514.4 626Z" fill="#BDBDBD"/>
  </g>
</svg>