<svg xmlns="http://www.w3.org/2000/svg" viewBox="0 0 600 600" aria-labelledby="additionalThumbnailTitle" role="img">
  <title id="additionalThumbnailTitle">Grid Pattern Generator Additional Thumbnail</title>
  <!-- Background with rounded corners and gradient -->
  <defs>
    <linearGradient id="bgGradient" x1="0%" y1="0%" x2="100%" y2="100%">
      <stop offset="0%" stop-color="#3A3A3A" />
      <stop offset="100%" stop-color="#222222" />
    </linearGradient>
    
    <!-- Dot pattern definition -->
    <pattern id="dotPattern" x="0" y="0" width="50" height="50" patternUnits="userSpaceOnUse">
      <circle cx="25" cy="25" r="6" fill="#6EB5FF" />
    </pattern>
    
    <!-- Grid pattern definition -->
    <pattern id="gridPattern" x="0" y="0" width="50" height="50" patternUnits="userSpaceOnUse">
      <path d="M0 0 L0 50 M50 0 L50 50 M0 0 L50 0 M0 50 L50 50" stroke="#666" stroke-width="1" stroke-opacity="0.4"/>
    </pattern>
  </defs>
  
  <!-- Main background -->
  <rect width="600" height="600" rx="40" fill="url(#bgGradient)"/>
  
  <!-- Subtle top highlight -->
  <rect x="20" y="20" width="560" height="2" rx="1" fill="white" opacity="0.1"/>
  
  <!-- Main grid pattern showcase -->
  <g transform="translate(100, 100)">
    <!-- Base grid -->
    <rect x="0" y="0" width="400" height="400" fill="url(#gridPattern)" />
    
    <!-- Dot pattern overlay with mask for circular fade effect -->
    <defs>
      <radialGradient id="fadeGradient" cx="50%" cy="50%" r="50%" fx="50%" fy="50%">
        <stop offset="0%" stop-color="white" stop-opacity="1" />
        <stop offset="85%" stop-color="white" stop-opacity="0.7" />
        <stop offset="100%" stop-color="white" stop-opacity="0" />
      </radialGradient>
      <mask id="fadeMask">
        <rect x="0" y="0" width="400" height="400" fill="black" />
        <circle cx="200" cy="200" r="200" fill="url(#fadeGradient)" />
      </mask>
    </defs>
    
    <!-- Dots with mask -->
    <rect x="0" y="0" width="400" height="400" fill="url(#dotPattern)" mask="url(#fadeMask)" />
    
    <!-- Decorative elements -->
    <circle cx="100" cy="100" r="10" fill="#6EB5FF" opacity="0.9" />
    <circle cx="300" cy="150" r="12" fill="#6EB5FF" opacity="0.9" />
    <circle cx="150" cy="300" r="8" fill="#6EB5FF" opacity="0.9" />
    <circle cx="250" cy="250" r="15" fill="#6EB5FF" opacity="0.9" />
    
    <!-- Diagonal highlight line -->
    <line x1="50" y1="50" x2="350" y2="350" stroke="#6EB5FF" stroke-width="2" stroke-opacity="0.5" />
    <line x1="350" y1="50" x2="50" y2="350" stroke="#6EB5FF" stroke-width="2" stroke-opacity="0.5" />
  </g>
</svg> 