<svg xmlns="http://www.w3.org/2000/svg" viewBox="0 0 600 740" aria-labelledby="thumbnailTitle" role="img">
  <title id="thumbnailTitle">Grid Pattern Generator Thumbnail</title>
  <!-- Background with rounded corners and gradient -->
  <defs>
    <linearGradient id="bgGradient" x1="0%" y1="0%" x2="100%" y2="100%">
      <stop offset="0%" stop-color="#3A3A3A" />
      <stop offset="100%" stop-color="#222222" />
    </linearGradient>
    
    <!-- Dot pattern definition -->
    <pattern id="dotPattern" x="0" y="0" width="60" height="60" patternUnits="userSpaceOnUse">
      <circle cx="30" cy="30" r="8" fill="#6EB5FF" />
    </pattern>
    
    <!-- Grid pattern definition -->
    <pattern id="gridPattern" x="0" y="0" width="60" height="60" patternUnits="userSpaceOnUse">
      <path d="M0 0 L0 60 M60 0 L60 60 M0 0 L60 0 M0 60 L60 60" stroke="#666" stroke-width="1" stroke-opacity="0.4"/>
    </pattern>
  </defs>
  
  <!-- Main background -->
  <rect width="600" height="740" rx="60" fill="url(#bgGradient)"/>
  
  <!-- Subtle top highlight -->
  <rect x="20" y="20" width="560" height="2" rx="1" fill="white" opacity="0.1"/>
  
  <!-- Main grid pattern showcase -->
  <g transform="translate(100, 120)">
    <!-- Base grid -->
    <rect x="0" y="0" width="400" height="400" fill="url(#gridPattern)" />
    
    <!-- Dot pattern overlay with mask for circular fade effect -->
    <defs>
      <radialGradient id="fadeGradient" cx="50%" cy="50%" r="50%" fx="50%" fy="50%">
        <stop offset="0%" stop-color="white" stop-opacity="1" />
        <stop offset="80%" stop-color="white" stop-opacity="0.8" />
        <stop offset="100%" stop-color="white" stop-opacity="0" />
      </radialGradient>
      <mask id="fadeMask">
        <rect x="0" y="0" width="400" height="400" fill="black" />
        <circle cx="200" cy="200" r="200" fill="url(#fadeGradient)" />
      </mask>
    </defs>
    
    <!-- Dots with mask -->
    <rect x="0" y="0" width="400" height="400" fill="url(#dotPattern)" mask="url(#fadeMask)" />
    
    <!-- Decorative elements -->
    <circle cx="120" cy="120" r="12" fill="#6EB5FF" opacity="0.9" />
    <circle cx="300" cy="180" r="15" fill="#6EB5FF" opacity="0.9" />
    <circle cx="180" cy="300" r="10" fill="#6EB5FF" opacity="0.9" />
    <circle cx="240" cy="240" r="18" fill="#6EB5FF" opacity="0.9" />
  </g>
  
  <!-- Plugin name with modern typography -->
  <text x="300" y="680" font-family="Arial, sans-serif" font-weight="600" font-size="40" fill="#FFFFFF" text-anchor="middle">Framer Grid Pattern</text>
  
  <!-- Subtle tagline -->
  <text x="300" y="720" font-family="Arial, sans-serif" font-size="20" fill="#AAAAAA" text-anchor="middle">Create beautiful grid patterns</text>
</svg> 